<mxfile host="drawio-plugin" modified="2021-12-01T19:15:47.830Z" agent="5.0 (Macintosh; Intel Mac OS X 11_6_1) AppleWebKit/537.36 (KHTML, like Gecko) Chrome/89.0.4389.114 Safari/537.36" etag="47o9ZL9h_8GO6Eqt5koR" version="14.7.4" type="embed" pages="3"><diagram id="acyyT64pUI-6M-C3bpDb" name="Initialization"><mxGraphModel dx="1598" dy="1115" grid="1" gridSize="10" guides="1" tooltips="1" connect="1" arrows="1" fold="1" page="1" pageScale="1" pageWidth="850" pageHeight="1100" math="0" shadow="0"><root><mxCell id="0"/><mxCell id="1" parent="0"/><mxCell id="1f6Iskar4MCwsiEwHHG7-1" value="" style="rounded=0;whiteSpace=wrap;html=1;fontSize=13;" parent="1" vertex="1"><mxGeometry x="40" y="200" width="1410" height="690" as="geometry"/></mxCell><mxCell id="1f6Iskar4MCwsiEwHHG7-2" value="" style="rounded=0;whiteSpace=wrap;html=1;fontSize=13;" parent="1" vertex="1"><mxGeometry x="40" y="720" width="1200" height="170" as="geometry"/></mxCell><mxCell id="1f6Iskar4MCwsiEwHHG7-3" value="" style="rounded=0;whiteSpace=wrap;html=1;fontSize=13;" parent="1" vertex="1"><mxGeometry x="1240" y="570" width="210" height="320" as="geometry"/></mxCell><mxCell id="1f6Iskar4MCwsiEwHHG7-4" value="" style="rounded=0;whiteSpace=wrap;html=1;fontSize=13;" parent="1" vertex="1"><mxGeometry x="1240" y="450" width="210" height="120" as="geometry"/></mxCell><mxCell id="1f6Iskar4MCwsiEwHHG7-5" value="" style="rounded=0;whiteSpace=wrap;html=1;fontSize=13;" parent="1" vertex="1"><mxGeometry x="1240" y="200" width="210" height="250" as="geometry"/></mxCell><mxCell id="1f6Iskar4MCwsiEwHHG7-6" value="main" style="shape=umlLifeline;perimeter=lifelinePerimeter;whiteSpace=wrap;html=1;container=1;collapsible=0;recursiveResize=0;outlineConnect=0;fontSize=13;" parent="1" vertex="1"><mxGeometry x="60" y="225" width="120" height="480" as="geometry"/></mxCell><mxCell id="1f6Iskar4MCwsiEwHHG7-7" value="AppBootstrapWidget" style="shape=umlLifeline;perimeter=lifelinePerimeter;whiteSpace=wrap;html=1;container=1;collapsible=0;recursiveResize=0;outlineConnect=0;fontSize=13;" parent="1" vertex="1"><mxGeometry x="190" y="225" width="160" height="480" as="geometry"/></mxCell><mxCell id="1f6Iskar4MCwsiEwHHG7-8" value="App Core Blocs" style="shape=umlLifeline;perimeter=lifelinePerimeter;whiteSpace=wrap;html=1;container=1;collapsible=0;recursiveResize=0;outlineConnect=0;fontSize=13;" parent="1" vertex="1"><mxGeometry x="520" y="225" width="120" height="480" as="geometry"/></mxCell><mxCell id="1f6Iskar4MCwsiEwHHG7-9" value="Dependency Feature Blocs" style="shape=umlLifeline;perimeter=lifelinePerimeter;whiteSpace=wrap;html=1;container=1;collapsible=0;recursiveResize=0;outlineConnect=0;fontSize=13;" parent="1" vertex="1"><mxGeometry x="800" y="225" width="140" height="480" as="geometry"/></mxCell><mxCell id="1f6Iskar4MCwsiEwHHG7-10" value="HomePage" style="shape=umlLifeline;perimeter=lifelinePerimeter;whiteSpace=wrap;html=1;container=1;collapsible=0;recursiveResize=0;outlineConnect=0;fontSize=13;" parent="1" vertex="1"><mxGeometry x="960" y="225" width="120" height="480" as="geometry"/></mxCell><mxCell id="1f6Iskar4MCwsiEwHHG7-11" value="Bootstrapper" style="shape=umlLifeline;perimeter=lifelinePerimeter;whiteSpace=wrap;html=1;container=1;collapsible=0;recursiveResize=0;outlineConnect=0;fontSize=13;" parent="1" vertex="1"><mxGeometry x="360" y="225" width="120" height="480" as="geometry"/></mxCell><mxCell id="1f6Iskar4MCwsiEwHHG7-12" value="" style="html=1;points=[];perimeter=orthogonalPerimeter;fontSize=13;" parent="1" vertex="1"><mxGeometry x="115" y="300" width="10" height="390" as="geometry"/></mxCell><mxCell id="1f6Iskar4MCwsiEwHHG7-13" value="&lt;h1 style=&quot;font-size: 13px&quot;&gt;App Core Blocs:&lt;/h1&gt;&lt;div&gt;&lt;div&gt;&amp;nbsp;- analytics&amp;nbsp;&lt;/div&gt;&lt;div&gt;&lt;span&gt;&lt;/span&gt;&amp;nbsp;- api_client&lt;/div&gt;&lt;div&gt;&lt;span&gt;&lt;/span&gt;&amp;nbsp;- app_requirements (h)&lt;/div&gt;&lt;div&gt;&lt;span&gt;&lt;/span&gt;&amp;nbsp;- connectivityBanner&lt;/div&gt;&lt;div&gt;&lt;span&gt;&lt;/span&gt;&amp;nbsp;- configuration&lt;/div&gt;&lt;div&gt;&lt;span&gt;&lt;/span&gt;&amp;nbsp;- dynamic_content (m)&lt;/div&gt;&lt;div&gt;&lt;span&gt;&lt;/span&gt;&amp;nbsp;- feature_toggles&lt;/div&gt;&lt;div&gt;&lt;span&gt;&lt;/span&gt;&amp;nbsp;- gps (b)&lt;/div&gt;&lt;div&gt;&lt;span&gt;&lt;/span&gt;&amp;nbsp;- keychain&lt;/div&gt;&lt;div&gt;&lt;span&gt;&lt;/span&gt;&amp;nbsp;- sites (h)&lt;/div&gt;&lt;div&gt;&lt;span&gt;&lt;/span&gt;&amp;nbsp;- sembast&lt;/div&gt;&lt;div&gt;&lt;span&gt;&lt;/span&gt;&amp;nbsp;- transactions (h)&lt;/div&gt;&lt;div&gt;&lt;span&gt;&lt;/span&gt;&amp;nbsp;- ui&lt;/div&gt;&lt;/div&gt;" style="text;html=1;strokeColor=none;fillColor=none;spacing=5;spacingTop=-20;whiteSpace=wrap;overflow=hidden;rounded=0;fontSize=13;" parent="1" vertex="1"><mxGeometry x="1250" y="210" width="170" height="240" as="geometry"/></mxCell><mxCell id="1f6Iskar4MCwsiEwHHG7-14" value="runApp()" style="html=1;verticalAlign=bottom;endArrow=block;fontSize=13;entryX=0;entryY=0.048;entryDx=0;entryDy=0;entryPerimeter=0;" parent="1" target="1f6Iskar4MCwsiEwHHG7-15" edge="1"><mxGeometry width="80" relative="1" as="geometry"><mxPoint x="124" y="320" as="sourcePoint"/><mxPoint x="230" y="320" as="targetPoint"/></mxGeometry></mxCell><mxCell id="1f6Iskar4MCwsiEwHHG7-15" value="" style="html=1;points=[];perimeter=orthogonalPerimeter;fontSize=13;" parent="1" vertex="1"><mxGeometry x="265" y="310" width="10" height="210" as="geometry"/></mxCell><mxCell id="1f6Iskar4MCwsiEwHHG7-16" value="bootstrap()" style="html=1;verticalAlign=bottom;endArrow=block;fontSize=13;entryX=0.1;entryY=0.091;entryDx=0;entryDy=0;entryPerimeter=0;" parent="1" target="1f6Iskar4MCwsiEwHHG7-17" edge="1"><mxGeometry width="80" relative="1" as="geometry"><mxPoint x="278" y="350" as="sourcePoint"/><mxPoint x="410" y="350" as="targetPoint"/></mxGeometry></mxCell><mxCell id="1f6Iskar4MCwsiEwHHG7-17" value="" style="html=1;points=[];perimeter=orthogonalPerimeter;fontSize=13;" parent="1" vertex="1"><mxGeometry x="415" y="338" width="10" height="132" as="geometry"/></mxCell><mxCell id="1f6Iskar4MCwsiEwHHG7-18" value="initialize()" style="html=1;verticalAlign=bottom;endArrow=block;fontSize=13;exitX=1.1;exitY=0.258;exitDx=0;exitDy=0;exitPerimeter=0;entryX=0.1;entryY=0.15;entryDx=0;entryDy=0;entryPerimeter=0;" parent="1" source="1f6Iskar4MCwsiEwHHG7-17" target="1f6Iskar4MCwsiEwHHG7-20" edge="1"><mxGeometry width="80" relative="1" as="geometry"><mxPoint x="440" y="372" as="sourcePoint"/><mxPoint x="560" y="372" as="targetPoint"/></mxGeometry></mxCell><mxCell id="1f6Iskar4MCwsiEwHHG7-19" value="show PlaceholderApp" style="text;html=1;strokeColor=none;fillColor=none;align=center;verticalAlign=middle;whiteSpace=wrap;rounded=0;fontSize=13;" parent="1" vertex="1"><mxGeometry x="280" y="350" width="135" height="30" as="geometry"/></mxCell><mxCell id="1f6Iskar4MCwsiEwHHG7-20" value="" style="html=1;points=[];perimeter=orthogonalPerimeter;fontSize=13;" parent="1" vertex="1"><mxGeometry x="575" y="360" width="10" height="80" as="geometry"/></mxCell><mxCell id="1f6Iskar4MCwsiEwHHG7-21" value="initialized" style="html=1;verticalAlign=bottom;endArrow=block;fontSize=13;entryX=0.9;entryY=0.697;entryDx=0;entryDy=0;entryPerimeter=0;exitX=-0.1;exitY=0.875;exitDx=0;exitDy=0;exitPerimeter=0;" parent="1" source="1f6Iskar4MCwsiEwHHG7-20" target="1f6Iskar4MCwsiEwHHG7-17" edge="1"><mxGeometry width="80" relative="1" as="geometry"><mxPoint x="550" y="430" as="sourcePoint"/><mxPoint x="450" y="430" as="targetPoint"/></mxGeometry></mxCell><mxCell id="1f6Iskar4MCwsiEwHHG7-22" value="initialized" style="html=1;verticalAlign=bottom;endArrow=block;fontSize=13;entryX=0.9;entryY=0.714;entryDx=0;entryDy=0;entryPerimeter=0;exitX=-0.2;exitY=0.924;exitDx=0;exitDy=0;exitPerimeter=0;" parent="1" source="1f6Iskar4MCwsiEwHHG7-17" target="1f6Iskar4MCwsiEwHHG7-15" edge="1"><mxGeometry width="80" relative="1" as="geometry"><mxPoint x="400" y="459" as="sourcePoint"/><mxPoint x="292.5" y="459" as="targetPoint"/></mxGeometry></mxCell><mxCell id="1f6Iskar4MCwsiEwHHG7-23" value="(App)&lt;br&gt;InitializationPage" style="shape=umlLifeline;perimeter=lifelinePerimeter;whiteSpace=wrap;html=1;container=1;collapsible=0;recursiveResize=0;outlineConnect=0;fontSize=13;" parent="1" vertex="1"><mxGeometry x="660" y="225" width="120" height="480" as="geometry"/></mxCell><mxCell id="1f6Iskar4MCwsiEwHHG7-24" value="move to App" style="html=1;verticalAlign=bottom;endArrow=block;fontSize=13;exitX=1.3;exitY=0.948;exitDx=0;exitDy=0;exitPerimeter=0;entryX=-0.2;entryY=0.077;entryDx=0;entryDy=0;entryPerimeter=0;" parent="1" source="1f6Iskar4MCwsiEwHHG7-15" target="1f6Iskar4MCwsiEwHHG7-25" edge="1"><mxGeometry x="0.6686" width="80" relative="1" as="geometry"><mxPoint x="287.5" y="509" as="sourcePoint"/><mxPoint x="710" y="509" as="targetPoint"/><mxPoint x="1" as="offset"/></mxGeometry></mxCell><mxCell id="1f6Iskar4MCwsiEwHHG7-25" value="" style="html=1;points=[];perimeter=orthogonalPerimeter;fontSize=13;" parent="1" vertex="1"><mxGeometry x="715" y="500" width="10" height="130" as="geometry"/></mxCell><mxCell id="1f6Iskar4MCwsiEwHHG7-26" value="initialize()" style="html=1;verticalAlign=bottom;endArrow=block;fontSize=13;exitX=0.9;exitY=0.238;exitDx=0;exitDy=0;exitPerimeter=0;entryX=0.1;entryY=0.143;entryDx=0;entryDy=0;entryPerimeter=0;" parent="1" source="1f6Iskar4MCwsiEwHHG7-25" target="1f6Iskar4MCwsiEwHHG7-28" edge="1"><mxGeometry width="80" relative="1" as="geometry"><mxPoint x="740" y="530" as="sourcePoint"/><mxPoint x="860" y="530" as="targetPoint"/></mxGeometry></mxCell><mxCell id="1f6Iskar4MCwsiEwHHG7-27" value="Feature Blocs" style="shape=umlLifeline;perimeter=lifelinePerimeter;whiteSpace=wrap;html=1;container=1;collapsible=0;recursiveResize=0;outlineConnect=0;fontSize=13;" parent="1" vertex="1"><mxGeometry x="1110" y="225" width="120" height="480" as="geometry"/></mxCell><mxCell id="1f6Iskar4MCwsiEwHHG7-28" value="" style="html=1;points=[];perimeter=orthogonalPerimeter;fontSize=13;" parent="1" vertex="1"><mxGeometry x="865" y="520" width="10" height="70" as="geometry"/></mxCell><mxCell id="1f6Iskar4MCwsiEwHHG7-29" value="initialized" style="html=1;verticalAlign=bottom;endArrow=block;fontSize=13;entryX=0.9;entryY=0.615;entryDx=0;entryDy=0;entryPerimeter=0;exitX=0;exitY=0.871;exitDx=0;exitDy=0;exitPerimeter=0;" parent="1" source="1f6Iskar4MCwsiEwHHG7-28" target="1f6Iskar4MCwsiEwHHG7-25" edge="1"><mxGeometry width="80" relative="1" as="geometry"><mxPoint x="850" y="580" as="sourcePoint"/><mxPoint x="750" y="580" as="targetPoint"/></mxGeometry></mxCell><mxCell id="1f6Iskar4MCwsiEwHHG7-30" value="navigate to&amp;nbsp; *" style="html=1;verticalAlign=bottom;endArrow=block;fontSize=13;entryX=0.1;entryY=0.129;entryDx=0;entryDy=0;entryPerimeter=0;" parent="1" source="1f6Iskar4MCwsiEwHHG7-25" target="1f6Iskar4MCwsiEwHHG7-31" edge="1"><mxGeometry width="80" relative="1" as="geometry"><mxPoint x="740" y="620" as="sourcePoint"/><mxPoint x="1000" y="620" as="targetPoint"/></mxGeometry></mxCell><mxCell id="1f6Iskar4MCwsiEwHHG7-31" value="" style="html=1;points=[];perimeter=orthogonalPerimeter;fontSize=13;" parent="1" vertex="1"><mxGeometry x="1015" y="610" width="10" height="70" as="geometry"/></mxCell><mxCell id="1f6Iskar4MCwsiEwHHG7-32" value="initialize()" style="html=1;verticalAlign=bottom;endArrow=block;fontSize=13;exitX=1.2;exitY=0.271;exitDx=0;exitDy=0;exitPerimeter=0;entryX=0;entryY=0.143;entryDx=0;entryDy=0;entryPerimeter=0;" parent="1" source="1f6Iskar4MCwsiEwHHG7-31" target="1f6Iskar4MCwsiEwHHG7-33" edge="1"><mxGeometry width="80" relative="1" as="geometry"><mxPoint x="1040" y="630" as="sourcePoint"/><mxPoint x="1160" y="630" as="targetPoint"/></mxGeometry></mxCell><mxCell id="1f6Iskar4MCwsiEwHHG7-33" value="" style="html=1;points=[];perimeter=orthogonalPerimeter;fontSize=13;" parent="1" vertex="1"><mxGeometry x="1165" y="620" width="10" height="70" as="geometry"/></mxCell><mxCell id="1f6Iskar4MCwsiEwHHG7-34" value="initialized" style="html=1;verticalAlign=bottom;endArrow=block;fontSize=13;entryX=1.2;entryY=0.843;entryDx=0;entryDy=0;entryPerimeter=0;exitX=0;exitY=0.714;exitDx=0;exitDy=0;exitPerimeter=0;" parent="1" source="1f6Iskar4MCwsiEwHHG7-33" target="1f6Iskar4MCwsiEwHHG7-31" edge="1"><mxGeometry width="80" relative="1" as="geometry"><mxPoint x="1150" y="670" as="sourcePoint"/><mxPoint x="1050" y="670" as="targetPoint"/></mxGeometry></mxCell><mxCell id="1f6Iskar4MCwsiEwHHG7-35" value="&lt;h1 style=&quot;font-size: 13px&quot;&gt;Dependency Features Blocs:&lt;/h1&gt;&lt;div&gt;&lt;div&gt;&amp;nbsp;- translations&lt;/div&gt;&lt;/div&gt;&lt;div&gt;&amp;nbsp;- firestore&lt;/div&gt;&lt;div&gt;&amp;nbsp;- user_profile&lt;/div&gt;&lt;div&gt;&amp;nbsp;- settings&lt;/div&gt;" style="text;html=1;strokeColor=none;fillColor=none;spacing=5;spacingTop=-20;whiteSpace=wrap;overflow=hidden;rounded=0;fontSize=13;" parent="1" vertex="1"><mxGeometry x="1250" y="460" width="190" height="90" as="geometry"/></mxCell><mxCell id="1f6Iskar4MCwsiEwHHG7-36" value="&lt;h1 style=&quot;font-size: 13px&quot;&gt;Feature Blocs:&lt;/h1&gt;&lt;div&gt;&lt;div&gt;&lt;span&gt;&amp;nbsp;- assets&amp;nbsp;&lt;/span&gt;&lt;/div&gt;&lt;div&gt;&lt;span&gt;&lt;/span&gt;&amp;nbsp;- backstage_maps (w)&lt;/div&gt;&lt;div&gt;&lt;span&gt;&lt;/span&gt;&amp;nbsp;- calendar&lt;/div&gt;&lt;div&gt;&lt;span&gt;&lt;/span&gt;&amp;nbsp;- cast_alert&lt;/div&gt;&lt;div&gt;&lt;span&gt;&lt;/span&gt;&amp;nbsp;- custom_cards&lt;/div&gt;&lt;div&gt;&lt;span&gt;&lt;/span&gt;&amp;nbsp;- events&lt;/div&gt;&lt;div&gt;&lt;span&gt;&lt;/span&gt;&amp;nbsp;- feedback&amp;nbsp;&lt;span&gt;(w)&lt;/span&gt;&lt;/div&gt;&lt;div&gt;&lt;span&gt;&lt;/span&gt;&amp;nbsp;- news&lt;/div&gt;&lt;div&gt;&lt;span&gt;&lt;/span&gt;&amp;nbsp;- offers&lt;/div&gt;&lt;div&gt;&lt;span&gt;&lt;/span&gt;&amp;nbsp;- operational_updates&lt;/div&gt;&lt;div&gt;&lt;span&gt;&lt;/span&gt;&amp;nbsp;- park_hours&lt;/div&gt;&lt;div&gt;&lt;span&gt;&lt;/span&gt;&amp;nbsp;- schedule&lt;/div&gt;&lt;div&gt;&lt;span&gt;&lt;/span&gt;&amp;nbsp;- search&amp;nbsp;&lt;span&gt;(w)&lt;/span&gt;&lt;/div&gt;&lt;div&gt;&lt;span&gt;&lt;/span&gt;&amp;nbsp;- feature_toggles&lt;/div&gt;&lt;div&gt;&lt;span&gt;&lt;/span&gt;&amp;nbsp;- tools&lt;/div&gt;&lt;div&gt;&lt;span&gt;&lt;/span&gt;&amp;nbsp;- walkthrough&lt;/div&gt;&lt;div&gt;&lt;span&gt;&lt;/span&gt;&amp;nbsp;- wallet&lt;/div&gt;&lt;/div&gt;" style="text;html=1;strokeColor=none;fillColor=none;spacing=5;spacingTop=-20;whiteSpace=wrap;overflow=hidden;rounded=0;fontSize=13;" parent="1" vertex="1"><mxGeometry x="1250" y="580" width="180" height="280" as="geometry"/></mxCell><mxCell id="1f6Iskar4MCwsiEwHHG7-37" value="&lt;h1 style=&quot;font-size: 13px&quot;&gt;&lt;br&gt;&lt;/h1&gt;&lt;div&gt;(h) App Core Bloc that needs to await the user authentication. It's initialized in the HomePage.&lt;/div&gt;&lt;div&gt;&lt;br&gt;&lt;/div&gt;&lt;div&gt;(m) App Core Bloc that must be initialized at the very creation of the app. It's initialized in main.dart.&lt;/div&gt;&lt;div&gt;&lt;br&gt;&lt;/div&gt;&lt;div&gt;(b) App Core Bloc that depends on the lifecycle of a Feature Bloc. It's initialized inside of that Feature Bloc.&lt;/div&gt;&lt;div&gt;&lt;br&gt;&lt;/div&gt;&lt;div&gt;(w) Feature Bloc that depends on the lifecycle of a widget. It's initialized inside of that widget.&lt;/div&gt;&lt;div&gt;&lt;br&gt;&lt;/div&gt;&lt;div&gt;* This flow shows the autologin navigation to HomePage. In case of no valid session is found in the app it will navigate to LoginPage and from there the user can navigate to HomePage after a successful authentication. Check mobile_flows.png - Initial Navigation tab to see the activity diagram of the initial navigation.&lt;/div&gt;" style="text;html=1;strokeColor=none;fillColor=none;spacing=5;spacingTop=-20;whiteSpace=wrap;overflow=hidden;rounded=0;fontSize=13;" parent="1" vertex="1"><mxGeometry x="50" y="707.5" width="1180" height="175" as="geometry"/></mxCell></root></mxGraphModel></diagram><diagram id="cJWa1TDqG-lI4nO7_TDK" name="Disposal"><mxGraphModel dx="1598" dy="1115" grid="1" gridSize="10" guides="1" tooltips="1" connect="1" arrows="1" fold="1" page="1" pageScale="1" pageWidth="850" pageHeight="1100" math="0" shadow="0"><root><mxCell id="XwQSdD0UWzMaL0ZMjb7j-0"/><mxCell id="XwQSdD0UWzMaL0ZMjb7j-1" parent="XwQSdD0UWzMaL0ZMjb7j-0"/><mxCell id="XwQSdD0UWzMaL0ZMjb7j-2" value="" style="rounded=0;whiteSpace=wrap;html=1;fontSize=13;" parent="XwQSdD0UWzMaL0ZMjb7j-1" vertex="1"><mxGeometry x="20" y="320" width="1410" height="670" as="geometry"/></mxCell><mxCell id="XwQSdD0UWzMaL0ZMjb7j-3" value="" style="rounded=0;whiteSpace=wrap;html=1;fontSize=13;" parent="XwQSdD0UWzMaL0ZMjb7j-1" vertex="1"><mxGeometry x="20" y="840" width="1200" height="150" as="geometry"/></mxCell><mxCell id="XwQSdD0UWzMaL0ZMjb7j-4" value="" style="rounded=0;whiteSpace=wrap;html=1;fontSize=13;" parent="XwQSdD0UWzMaL0ZMjb7j-1" vertex="1"><mxGeometry x="1220" y="690" width="210" height="300" as="geometry"/></mxCell><mxCell id="XwQSdD0UWzMaL0ZMjb7j-5" value="" style="rounded=0;whiteSpace=wrap;html=1;fontSize=13;" parent="XwQSdD0UWzMaL0ZMjb7j-1" vertex="1"><mxGeometry x="1220" y="570" width="210" height="120" as="geometry"/></mxCell><mxCell id="XwQSdD0UWzMaL0ZMjb7j-6" value="" style="rounded=0;whiteSpace=wrap;html=1;fontSize=13;" parent="XwQSdD0UWzMaL0ZMjb7j-1" vertex="1"><mxGeometry x="1220" y="320" width="210" height="250" as="geometry"/></mxCell><mxCell id="XwQSdD0UWzMaL0ZMjb7j-7" value="SignOut Button" style="shape=umlLifeline;perimeter=lifelinePerimeter;whiteSpace=wrap;html=1;container=1;collapsible=0;recursiveResize=0;outlineConnect=0;fontSize=13;" parent="XwQSdD0UWzMaL0ZMjb7j-1" vertex="1"><mxGeometry x="40" y="345" width="120" height="480" as="geometry"/></mxCell><mxCell id="XwQSdD0UWzMaL0ZMjb7j-8" value="AppBootstrapWidget" style="shape=umlLifeline;perimeter=lifelinePerimeter;whiteSpace=wrap;html=1;container=1;collapsible=0;recursiveResize=0;outlineConnect=0;fontSize=13;" parent="XwQSdD0UWzMaL0ZMjb7j-1" vertex="1"><mxGeometry x="170" y="345" width="160" height="480" as="geometry"/></mxCell><mxCell id="XwQSdD0UWzMaL0ZMjb7j-9" value="App Core Blocs" style="shape=umlLifeline;perimeter=lifelinePerimeter;whiteSpace=wrap;html=1;container=1;collapsible=0;recursiveResize=0;outlineConnect=0;fontSize=13;" parent="XwQSdD0UWzMaL0ZMjb7j-1" vertex="1"><mxGeometry x="500" y="345" width="120" height="480" as="geometry"/></mxCell><mxCell id="XwQSdD0UWzMaL0ZMjb7j-10" value="Dependency Feature Blocs" style="shape=umlLifeline;perimeter=lifelinePerimeter;whiteSpace=wrap;html=1;container=1;collapsible=0;recursiveResize=0;outlineConnect=0;fontSize=13;" parent="XwQSdD0UWzMaL0ZMjb7j-1" vertex="1"><mxGeometry x="780" y="345" width="140" height="480" as="geometry"/></mxCell><mxCell id="XwQSdD0UWzMaL0ZMjb7j-11" value="HomePage" style="shape=umlLifeline;perimeter=lifelinePerimeter;whiteSpace=wrap;html=1;container=1;collapsible=0;recursiveResize=0;outlineConnect=0;fontSize=13;" parent="XwQSdD0UWzMaL0ZMjb7j-1" vertex="1"><mxGeometry x="940" y="345" width="120" height="480" as="geometry"/></mxCell><mxCell id="XwQSdD0UWzMaL0ZMjb7j-12" value="Bootstrapper" style="shape=umlLifeline;perimeter=lifelinePerimeter;whiteSpace=wrap;html=1;container=1;collapsible=0;recursiveResize=0;outlineConnect=0;fontSize=13;" parent="XwQSdD0UWzMaL0ZMjb7j-1" vertex="1"><mxGeometry x="340" y="345" width="120" height="480" as="geometry"/></mxCell><mxCell id="XwQSdD0UWzMaL0ZMjb7j-13" value="" style="html=1;points=[];perimeter=orthogonalPerimeter;fontSize=13;" parent="XwQSdD0UWzMaL0ZMjb7j-1" vertex="1"><mxGeometry x="95" y="420" width="10" height="390" as="geometry"/></mxCell><mxCell id="XwQSdD0UWzMaL0ZMjb7j-14" value="&lt;h1 style=&quot;font-size: 13px&quot;&gt;SignOut Buttons:&lt;/h1&gt;&lt;div&gt;&lt;div&gt;&amp;nbsp;- analytics&amp;nbsp;&lt;/div&gt;&lt;div&gt;&lt;span&gt;&lt;/span&gt;&amp;nbsp;- api_client&lt;/div&gt;&lt;div&gt;&lt;span&gt;&lt;/span&gt;&amp;nbsp;- app_requirements (h)&lt;/div&gt;&lt;div&gt;&lt;span&gt;&lt;/span&gt;&amp;nbsp;- connectivityBanner&lt;/div&gt;&lt;div&gt;&lt;span&gt;&lt;/span&gt;&amp;nbsp;- configuration&lt;/div&gt;&lt;div&gt;&lt;span&gt;&lt;/span&gt;&amp;nbsp;- dynamic_content (m)&lt;/div&gt;&lt;div&gt;&lt;span&gt;&lt;/span&gt;&amp;nbsp;- feature_toggles&lt;/div&gt;&lt;div&gt;&lt;span&gt;&lt;/span&gt;&amp;nbsp;- gps (b)&lt;/div&gt;&lt;div&gt;&lt;span&gt;&lt;/span&gt;&amp;nbsp;- keychain&lt;/div&gt;&lt;div&gt;&lt;span&gt;&lt;/span&gt;&amp;nbsp;- sites (h)&lt;/div&gt;&lt;div&gt;&lt;span&gt;&lt;/span&gt;&amp;nbsp;- sembast&lt;/div&gt;&lt;div&gt;&lt;span&gt;&lt;/span&gt;&amp;nbsp;- transactions (h)&lt;/div&gt;&lt;div&gt;&lt;span&gt;&lt;/span&gt;&amp;nbsp;- ui&lt;/div&gt;&lt;/div&gt;" style="text;html=1;strokeColor=none;fillColor=none;spacing=5;spacingTop=-20;whiteSpace=wrap;overflow=hidden;rounded=0;fontSize=13;" parent="XwQSdD0UWzMaL0ZMjb7j-1" vertex="1"><mxGeometry x="1230" y="330" width="170" height="240" as="geometry"/></mxCell><mxCell id="XwQSdD0UWzMaL0ZMjb7j-15" value="runApp()" style="html=1;verticalAlign=bottom;endArrow=block;fontSize=13;entryX=0;entryY=0.048;entryDx=0;entryDy=0;entryPerimeter=0;" parent="XwQSdD0UWzMaL0ZMjb7j-1" target="XwQSdD0UWzMaL0ZMjb7j-16" edge="1"><mxGeometry width="80" relative="1" as="geometry"><mxPoint x="104" y="440" as="sourcePoint"/><mxPoint x="210" y="440" as="targetPoint"/></mxGeometry></mxCell><mxCell id="XwQSdD0UWzMaL0ZMjb7j-16" value="" style="html=1;points=[];perimeter=orthogonalPerimeter;fontSize=13;" parent="XwQSdD0UWzMaL0ZMjb7j-1" vertex="1"><mxGeometry x="245" y="430" width="10" height="210" as="geometry"/></mxCell><mxCell id="XwQSdD0UWzMaL0ZMjb7j-17" value="bootstrap()" style="html=1;verticalAlign=bottom;endArrow=block;fontSize=13;entryX=0.1;entryY=0.091;entryDx=0;entryDy=0;entryPerimeter=0;" parent="XwQSdD0UWzMaL0ZMjb7j-1" target="XwQSdD0UWzMaL0ZMjb7j-18" edge="1"><mxGeometry width="80" relative="1" as="geometry"><mxPoint x="258" y="470" as="sourcePoint"/><mxPoint x="390" y="470" as="targetPoint"/></mxGeometry></mxCell><mxCell id="XwQSdD0UWzMaL0ZMjb7j-18" value="" style="html=1;points=[];perimeter=orthogonalPerimeter;fontSize=13;" parent="XwQSdD0UWzMaL0ZMjb7j-1" vertex="1"><mxGeometry x="395" y="458" width="10" height="132" as="geometry"/></mxCell><mxCell id="XwQSdD0UWzMaL0ZMjb7j-19" value="initialize()" style="html=1;verticalAlign=bottom;endArrow=block;fontSize=13;exitX=1.1;exitY=0.258;exitDx=0;exitDy=0;exitPerimeter=0;entryX=0.1;entryY=0.15;entryDx=0;entryDy=0;entryPerimeter=0;" parent="XwQSdD0UWzMaL0ZMjb7j-1" source="XwQSdD0UWzMaL0ZMjb7j-18" target="XwQSdD0UWzMaL0ZMjb7j-21" edge="1"><mxGeometry width="80" relative="1" as="geometry"><mxPoint x="420" y="492" as="sourcePoint"/><mxPoint x="540" y="492" as="targetPoint"/></mxGeometry></mxCell><mxCell id="XwQSdD0UWzMaL0ZMjb7j-20" value="show PlaceholderApp" style="text;html=1;strokeColor=none;fillColor=none;align=center;verticalAlign=middle;whiteSpace=wrap;rounded=0;fontSize=13;" parent="XwQSdD0UWzMaL0ZMjb7j-1" vertex="1"><mxGeometry x="260" y="470" width="135" height="30" as="geometry"/></mxCell><mxCell id="XwQSdD0UWzMaL0ZMjb7j-21" value="" style="html=1;points=[];perimeter=orthogonalPerimeter;fontSize=13;" parent="XwQSdD0UWzMaL0ZMjb7j-1" vertex="1"><mxGeometry x="555" y="480" width="10" height="80" as="geometry"/></mxCell><mxCell id="XwQSdD0UWzMaL0ZMjb7j-22" value="initialized" style="html=1;verticalAlign=bottom;endArrow=block;fontSize=13;entryX=0.9;entryY=0.697;entryDx=0;entryDy=0;entryPerimeter=0;exitX=-0.1;exitY=0.875;exitDx=0;exitDy=0;exitPerimeter=0;" parent="XwQSdD0UWzMaL0ZMjb7j-1" source="XwQSdD0UWzMaL0ZMjb7j-21" target="XwQSdD0UWzMaL0ZMjb7j-18" edge="1"><mxGeometry width="80" relative="1" as="geometry"><mxPoint x="530" y="550" as="sourcePoint"/><mxPoint x="430" y="550" as="targetPoint"/></mxGeometry></mxCell><mxCell id="XwQSdD0UWzMaL0ZMjb7j-23" value="initialized" style="html=1;verticalAlign=bottom;endArrow=block;fontSize=13;entryX=0.9;entryY=0.714;entryDx=0;entryDy=0;entryPerimeter=0;exitX=-0.2;exitY=0.924;exitDx=0;exitDy=0;exitPerimeter=0;" parent="XwQSdD0UWzMaL0ZMjb7j-1" source="XwQSdD0UWzMaL0ZMjb7j-18" target="XwQSdD0UWzMaL0ZMjb7j-16" edge="1"><mxGeometry width="80" relative="1" as="geometry"><mxPoint x="380" y="579" as="sourcePoint"/><mxPoint x="272.5" y="579" as="targetPoint"/></mxGeometry></mxCell><mxCell id="XwQSdD0UWzMaL0ZMjb7j-24" value="(App)&lt;br&gt;InitializationPage" style="shape=umlLifeline;perimeter=lifelinePerimeter;whiteSpace=wrap;html=1;container=1;collapsible=0;recursiveResize=0;outlineConnect=0;fontSize=13;" parent="XwQSdD0UWzMaL0ZMjb7j-1" vertex="1"><mxGeometry x="640" y="345" width="120" height="480" as="geometry"/></mxCell><mxCell id="XwQSdD0UWzMaL0ZMjb7j-25" value="move to App" style="html=1;verticalAlign=bottom;endArrow=block;fontSize=13;exitX=1.3;exitY=0.948;exitDx=0;exitDy=0;exitPerimeter=0;entryX=-0.2;entryY=0.077;entryDx=0;entryDy=0;entryPerimeter=0;" parent="XwQSdD0UWzMaL0ZMjb7j-1" source="XwQSdD0UWzMaL0ZMjb7j-16" target="XwQSdD0UWzMaL0ZMjb7j-26" edge="1"><mxGeometry x="0.6686" width="80" relative="1" as="geometry"><mxPoint x="267.5" y="629" as="sourcePoint"/><mxPoint x="690" y="629" as="targetPoint"/><mxPoint x="1" as="offset"/></mxGeometry></mxCell><mxCell id="XwQSdD0UWzMaL0ZMjb7j-26" value="" style="html=1;points=[];perimeter=orthogonalPerimeter;fontSize=13;" parent="XwQSdD0UWzMaL0ZMjb7j-1" vertex="1"><mxGeometry x="695" y="620" width="10" height="130" as="geometry"/></mxCell><mxCell id="XwQSdD0UWzMaL0ZMjb7j-27" value="initialize()" style="html=1;verticalAlign=bottom;endArrow=block;fontSize=13;exitX=0.9;exitY=0.238;exitDx=0;exitDy=0;exitPerimeter=0;entryX=0.1;entryY=0.143;entryDx=0;entryDy=0;entryPerimeter=0;" parent="XwQSdD0UWzMaL0ZMjb7j-1" source="XwQSdD0UWzMaL0ZMjb7j-26" target="XwQSdD0UWzMaL0ZMjb7j-29" edge="1"><mxGeometry width="80" relative="1" as="geometry"><mxPoint x="720" y="650" as="sourcePoint"/><mxPoint x="840" y="650" as="targetPoint"/></mxGeometry></mxCell><mxCell id="XwQSdD0UWzMaL0ZMjb7j-28" value="Feature Blocs" style="shape=umlLifeline;perimeter=lifelinePerimeter;whiteSpace=wrap;html=1;container=1;collapsible=0;recursiveResize=0;outlineConnect=0;fontSize=13;" parent="XwQSdD0UWzMaL0ZMjb7j-1" vertex="1"><mxGeometry x="1090" y="345" width="120" height="480" as="geometry"/></mxCell><mxCell id="XwQSdD0UWzMaL0ZMjb7j-29" value="" style="html=1;points=[];perimeter=orthogonalPerimeter;fontSize=13;" parent="XwQSdD0UWzMaL0ZMjb7j-1" vertex="1"><mxGeometry x="845" y="640" width="10" height="70" as="geometry"/></mxCell><mxCell id="XwQSdD0UWzMaL0ZMjb7j-30" value="initialized" style="html=1;verticalAlign=bottom;endArrow=block;fontSize=13;entryX=0.9;entryY=0.615;entryDx=0;entryDy=0;entryPerimeter=0;exitX=0;exitY=0.871;exitDx=0;exitDy=0;exitPerimeter=0;" parent="XwQSdD0UWzMaL0ZMjb7j-1" source="XwQSdD0UWzMaL0ZMjb7j-29" target="XwQSdD0UWzMaL0ZMjb7j-26" edge="1"><mxGeometry width="80" relative="1" as="geometry"><mxPoint x="830" y="700" as="sourcePoint"/><mxPoint x="730" y="700" as="targetPoint"/></mxGeometry></mxCell><mxCell id="XwQSdD0UWzMaL0ZMjb7j-31" value="navigate to&amp;nbsp;" style="html=1;verticalAlign=bottom;endArrow=block;fontSize=13;entryX=0.1;entryY=0.129;entryDx=0;entryDy=0;entryPerimeter=0;" parent="XwQSdD0UWzMaL0ZMjb7j-1" source="XwQSdD0UWzMaL0ZMjb7j-26" target="XwQSdD0UWzMaL0ZMjb7j-32" edge="1"><mxGeometry width="80" relative="1" as="geometry"><mxPoint x="720" y="740" as="sourcePoint"/><mxPoint x="980" y="740" as="targetPoint"/></mxGeometry></mxCell><mxCell id="XwQSdD0UWzMaL0ZMjb7j-32" value="" style="html=1;points=[];perimeter=orthogonalPerimeter;fontSize=13;" parent="XwQSdD0UWzMaL0ZMjb7j-1" vertex="1"><mxGeometry x="995" y="730" width="10" height="70" as="geometry"/></mxCell><mxCell id="XwQSdD0UWzMaL0ZMjb7j-33" value="initialize()" style="html=1;verticalAlign=bottom;endArrow=block;fontSize=13;exitX=1.2;exitY=0.271;exitDx=0;exitDy=0;exitPerimeter=0;entryX=0;entryY=0.143;entryDx=0;entryDy=0;entryPerimeter=0;" parent="XwQSdD0UWzMaL0ZMjb7j-1" source="XwQSdD0UWzMaL0ZMjb7j-32" target="XwQSdD0UWzMaL0ZMjb7j-34" edge="1"><mxGeometry width="80" relative="1" as="geometry"><mxPoint x="1020" y="750" as="sourcePoint"/><mxPoint x="1140" y="750" as="targetPoint"/></mxGeometry></mxCell><mxCell id="XwQSdD0UWzMaL0ZMjb7j-34" value="" style="html=1;points=[];perimeter=orthogonalPerimeter;fontSize=13;" parent="XwQSdD0UWzMaL0ZMjb7j-1" vertex="1"><mxGeometry x="1145" y="740" width="10" height="70" as="geometry"/></mxCell><mxCell id="XwQSdD0UWzMaL0ZMjb7j-35" value="initialized" style="html=1;verticalAlign=bottom;endArrow=block;fontSize=13;entryX=1.2;entryY=0.843;entryDx=0;entryDy=0;entryPerimeter=0;exitX=0;exitY=0.714;exitDx=0;exitDy=0;exitPerimeter=0;" parent="XwQSdD0UWzMaL0ZMjb7j-1" source="XwQSdD0UWzMaL0ZMjb7j-34" target="XwQSdD0UWzMaL0ZMjb7j-32" edge="1"><mxGeometry width="80" relative="1" as="geometry"><mxPoint x="1130" y="790" as="sourcePoint"/><mxPoint x="1030" y="790" as="targetPoint"/></mxGeometry></mxCell><mxCell id="XwQSdD0UWzMaL0ZMjb7j-36" value="&lt;h1 style=&quot;font-size: 13px&quot;&gt;Dependency Features Blocs:&lt;/h1&gt;&lt;div&gt;&lt;div&gt;&amp;nbsp;- translations&lt;/div&gt;&lt;/div&gt;&lt;div&gt;&amp;nbsp;- firestore&lt;/div&gt;&lt;div&gt;&amp;nbsp;- user_profile&lt;/div&gt;&lt;div&gt;&amp;nbsp;- settings&lt;/div&gt;" style="text;html=1;strokeColor=none;fillColor=none;spacing=5;spacingTop=-20;whiteSpace=wrap;overflow=hidden;rounded=0;fontSize=13;" parent="XwQSdD0UWzMaL0ZMjb7j-1" vertex="1"><mxGeometry x="1230" y="580" width="190" height="90" as="geometry"/></mxCell><mxCell id="XwQSdD0UWzMaL0ZMjb7j-37" value="&lt;h1 style=&quot;font-size: 13px&quot;&gt;Feature Blocs:&lt;/h1&gt;&lt;div&gt;&lt;div&gt;&lt;span&gt;&amp;nbsp;- assets&amp;nbsp;&lt;/span&gt;&lt;/div&gt;&lt;div&gt;&lt;span&gt;&lt;/span&gt;&amp;nbsp;- backstage_maps (w)&lt;/div&gt;&lt;div&gt;&lt;span&gt;&lt;/span&gt;&amp;nbsp;- calendar&lt;/div&gt;&lt;div&gt;&lt;span&gt;&lt;/span&gt;&amp;nbsp;- cast_alert&lt;/div&gt;&lt;div&gt;&lt;span&gt;&lt;/span&gt;&amp;nbsp;- custom_cards&lt;/div&gt;&lt;div&gt;&lt;span&gt;&lt;/span&gt;&amp;nbsp;- events&lt;/div&gt;&lt;div&gt;&lt;span&gt;&lt;/span&gt;&amp;nbsp;- feedback&amp;nbsp;&lt;span&gt;(w)&lt;/span&gt;&lt;/div&gt;&lt;div&gt;&lt;span&gt;&lt;/span&gt;&amp;nbsp;- news&lt;/div&gt;&lt;div&gt;&lt;span&gt;&lt;/span&gt;&amp;nbsp;- offers&lt;/div&gt;&lt;div&gt;&lt;span&gt;&lt;/span&gt;&amp;nbsp;- operational_updates&lt;/div&gt;&lt;div&gt;&lt;span&gt;&lt;/span&gt;&amp;nbsp;- park_hours&lt;/div&gt;&lt;div&gt;&lt;span&gt;&lt;/span&gt;&amp;nbsp;- schedule&lt;/div&gt;&lt;div&gt;&lt;span&gt;&lt;/span&gt;&amp;nbsp;- search&amp;nbsp;&lt;span&gt;(w)&lt;/span&gt;&lt;/div&gt;&lt;div&gt;&lt;span&gt;&lt;/span&gt;&amp;nbsp;- feature_toggles&lt;/div&gt;&lt;div&gt;&lt;span&gt;&lt;/span&gt;&amp;nbsp;- tools&lt;/div&gt;&lt;div&gt;&lt;span&gt;&lt;/span&gt;&amp;nbsp;- walkthrough&lt;/div&gt;&lt;div&gt;&lt;span&gt;&lt;/span&gt;&amp;nbsp;- wallet&lt;/div&gt;&lt;/div&gt;" style="text;html=1;strokeColor=none;fillColor=none;spacing=5;spacingTop=-20;whiteSpace=wrap;overflow=hidden;rounded=0;fontSize=13;" parent="XwQSdD0UWzMaL0ZMjb7j-1" vertex="1"><mxGeometry x="1230" y="700" width="180" height="310" as="geometry"/></mxCell><mxCell id="XwQSdD0UWzMaL0ZMjb7j-38" value="&lt;h1 style=&quot;font-size: 13px&quot;&gt;&lt;br&gt;&lt;/h1&gt;&lt;div&gt;(h) App Core Bloc that needs to await the user authentication. It's initialized in the HomePage.&lt;/div&gt;&lt;div&gt;&lt;br&gt;&lt;/div&gt;&lt;div&gt;(m) App Core Bloc that must be initialized at the very creation of the app. It's initialized in main.dart.&lt;/div&gt;&lt;div&gt;&lt;br&gt;&lt;/div&gt;&lt;div&gt;(b) App Core Bloc that depends on the lifecycle of a Feature Bloc. It's initialized inside of that Feature Bloc.&lt;/div&gt;&lt;div&gt;&lt;br&gt;&lt;/div&gt;&lt;div&gt;(w) Feature Bloc that depends on the lifecycle of a widget. It's initialized inside of that widget.&lt;/div&gt;" style="text;html=1;strokeColor=none;fillColor=none;spacing=5;spacingTop=-20;whiteSpace=wrap;overflow=hidden;rounded=0;fontSize=13;" parent="XwQSdD0UWzMaL0ZMjb7j-1" vertex="1"><mxGeometry x="40" y="840" width="1120" height="150" as="geometry"/></mxCell><mxCell id="XwQSdD0UWzMaL0ZMjb7j-39" value="WIP" style="text;html=1;strokeColor=none;fillColor=none;align=center;verticalAlign=middle;whiteSpace=wrap;rounded=0;fontSize=45;" parent="XwQSdD0UWzMaL0ZMjb7j-1" vertex="1"><mxGeometry x="20" y="200" width="240" height="120" as="geometry"/></mxCell></root></mxGraphModel></diagram><diagram id="3ztnJyD573CHzyBIo7ks" name="Basic Flow"><mxGraphModel dx="1598" dy="1115" grid="1" gridSize="10" guides="1" tooltips="1" connect="1" arrows="1" fold="1" page="1" pageScale="1" pageWidth="850" pageHeight="1100" math="0" shadow="0"><root><mxCell id="3tLjLxUR59zKQ6jt17Kt-0"/><mxCell id="3tLjLxUR59zKQ6jt17Kt-1" parent="3tLjLxUR59zKQ6jt17Kt-0"/><mxCell id="3tLjLxUR59zKQ6jt17Kt-2" value="" style="rounded=0;whiteSpace=wrap;html=1;" parent="3tLjLxUR59zKQ6jt17Kt-1" vertex="1"><mxGeometry x="20" y="320" width="1410" height="820" as="geometry"/></mxCell><mxCell id="3tLjLxUR59zKQ6jt17Kt-3" value="App" style="shape=umlLifeline;perimeter=lifelinePerimeter;whiteSpace=wrap;html=1;container=1;collapsible=0;recursiveResize=0;outlineConnect=0;fontSize=13;" parent="3tLjLxUR59zKQ6jt17Kt-1" vertex="1"><mxGeometry x="40" y="345" width="120" height="480" as="geometry"/></mxCell><mxCell id="3tLjLxUR59zKQ6jt17Kt-4" value="Feature Bloc" style="shape=umlLifeline;perimeter=lifelinePerimeter;whiteSpace=wrap;html=1;container=1;collapsible=0;recursiveResize=0;outlineConnect=0;fontSize=13;" parent="3tLjLxUR59zKQ6jt17Kt-1" vertex="1"><mxGeometry x="190" y="345" width="120" height="480" as="geometry"/></mxCell><mxCell id="3tLjLxUR59zKQ6jt17Kt-5" value="ApiClientBloc" style="shape=umlLifeline;perimeter=lifelinePerimeter;whiteSpace=wrap;html=1;container=1;collapsible=0;recursiveResize=0;outlineConnect=0;fontSize=13;" parent="3tLjLxUR59zKQ6jt17Kt-1" vertex="1"><mxGeometry x="500" y="345" width="120" height="480" as="geometry"/></mxCell><mxCell id="3tLjLxUR59zKQ6jt17Kt-6" value="FirestoreBloc" style="shape=umlLifeline;perimeter=lifelinePerimeter;whiteSpace=wrap;html=1;container=1;collapsible=0;recursiveResize=0;outlineConnect=0;fontSize=13;" parent="3tLjLxUR59zKQ6jt17Kt-1" vertex="1"><mxGeometry x="650" y="345" width="120" height="480" as="geometry"/></mxCell><mxCell id="3tLjLxUR59zKQ6jt17Kt-7" value="SembastBloc" style="shape=umlLifeline;perimeter=lifelinePerimeter;whiteSpace=wrap;html=1;container=1;collapsible=0;recursiveResize=0;outlineConnect=0;fontSize=13;" parent="3tLjLxUR59zKQ6jt17Kt-1" vertex="1"><mxGeometry x="800" y="345" width="120" height="480" as="geometry"/></mxCell><mxCell id="3tLjLxUR59zKQ6jt17Kt-8" value="KeychainBloc" style="shape=umlLifeline;perimeter=lifelinePerimeter;whiteSpace=wrap;html=1;container=1;collapsible=0;recursiveResize=0;outlineConnect=0;fontSize=13;" parent="3tLjLxUR59zKQ6jt17Kt-1" vertex="1"><mxGeometry x="340" y="345" width="120" height="480" as="geometry"/></mxCell><mxCell id="3tLjLxUR59zKQ6jt17Kt-9" value="DependencyBloc" style="shape=umlLifeline;perimeter=lifelinePerimeter;whiteSpace=wrap;html=1;container=1;collapsible=0;recursiveResize=0;outlineConnect=0;fontSize=13;" parent="3tLjLxUR59zKQ6jt17Kt-1" vertex="1"><mxGeometry x="960" y="345" width="120" height="480" as="geometry"/></mxCell><mxCell id="3tLjLxUR59zKQ6jt17Kt-10" value="" style="html=1;points=[];perimeter=orthogonalPerimeter;" parent="3tLjLxUR59zKQ6jt17Kt-1" vertex="1"><mxGeometry x="95" y="420" width="10" height="80" as="geometry"/></mxCell><mxCell id="3tLjLxUR59zKQ6jt17Kt-11" value="WIP" style="text;html=1;strokeColor=none;fillColor=none;align=center;verticalAlign=middle;whiteSpace=wrap;rounded=0;fontSize=45;" parent="3tLjLxUR59zKQ6jt17Kt-1" vertex="1"><mxGeometry x="20" y="200" width="240" height="120" as="geometry"/></mxCell></root></mxGraphModel></diagram></mxfile>